<svg width="79" height="57" viewBox="0 0 79 57" fill="none" xmlns="http://www.w3.org/2000/svg">
<path d="M47.5418 0.0635376L31.9879 19.1986H24.7295L29.4169 14.8238H24.7295L18.011 21.6986H42.9087L2.36916 56.488L12.1317 31.006H20.1984L15.8236 35.4481H20.1984L24.7295 27.5312L0.218079 21.6986L40.0415 3.73041L47.5418 0.0635376Z" fill="#F8D613" stroke="#F8D613" stroke-width="0.141452"/>
<path d="M67.3979 2.87646H49.5274L41.7505 11.6463H63.2612C63.2612 11.6463 65.1803 12.4044 65.7433 13.4664C66.3443 14.6003 66.091 15.5171 65.7505 16.7497L65.7433 16.7757C65.2992 18.3832 64.5811 19.2313 63.2612 20.2506C62.0455 21.1893 59.621 21.7398 59.621 21.7398H48.0382L38.4411 29.6822H48.7001L59.621 39.9412H75.8368L63.2612 28.8549L67.3979 27.5311C67.3979 27.5311 73.5421 25.0124 75.8368 21.7398C77.7844 18.9622 78.5925 16.857 78.4843 13.4664C78.3858 10.3818 77.9348 8.28375 75.8368 6.02035C73.446 3.44112 67.3979 2.87646 67.3979 2.87646Z" fill="#FBFCFC"/>
</svg>
